<svg width="58" height="49" viewBox="0 0 58 49" fill="none" xmlns="http://www.w3.org/2000/svg">
<path d="M57.4606 20.2391C57.1908 19.4655 56.5161 19.0338 55.9584 18.8089C55.3827 18.575 54.834 18.485 54.3482 18.449C53.7455 18.3951 53.2418 18.4221 52.819 18.458C53.1158 18.1702 53.3947 17.8643 53.6106 17.4955C54.2493 16.4431 54.3392 15.1477 54.0873 14.0593C53.8355 12.9798 53.4127 11.9364 52.792 11.0548C51.5506 9.2917 49.9315 7.97836 48.2673 6.86293C44.93 4.65005 41.3138 3.22877 37.7696 2.35622C30.6363 0.665074 23.8447 1.45667 18.6723 3.29174C16.0726 4.20028 13.8508 5.35169 11.9977 6.50311C10.1537 7.65453 8.64242 8.79695 7.55397 9.88539C6.45653 10.9648 5.70091 11.8824 5.23315 12.5301C4.75639 13.1777 4.5585 13.5555 4.58548 13.5735C4.67544 13.6455 5.64694 12.2512 7.88681 10.2362C9.00224 9.22873 10.5135 8.17626 12.3575 7.09681C14.2016 6.02635 16.3965 4.9559 18.9512 4.12832C24.0246 2.44617 30.6003 1.78051 37.4818 3.47165C39.1819 3.93042 40.918 4.46115 42.6092 5.19877C44.3003 5.9364 45.9825 6.81795 47.5657 7.87941C49.1399 8.94087 50.6511 10.2002 51.7395 11.7474C52.747 13.2497 53.4127 15.3636 52.5131 16.8389C52.0814 17.5765 51.2988 18.1342 50.4442 18.539C49.5806 18.9438 48.6451 19.2317 47.6916 19.4475C45.7756 19.8793 43.7966 20.0862 41.8626 20.3381C37.9945 20.8238 34.2524 21.2196 30.6812 21.5525C27.1011 21.8943 23.7278 22.1282 20.5164 22.3801C17.314 22.7579 14.3995 23.2346 11.7189 23.3336C9.06521 23.4325 6.57347 23.2346 4.80137 22.2001C4.59448 22.0652 4.38758 21.9213 4.18069 21.7864C4.00977 21.6154 3.83886 21.4535 3.67694 21.2826C3.35311 20.9498 3.11923 20.563 2.9753 20.1672C2.65146 19.3756 2.67845 18.539 2.80439 17.8284C3.07425 16.3801 3.66795 15.3366 4.02776 14.644C4.41457 13.9513 4.63945 13.5915 4.59448 13.5645C4.56749 13.5465 4.27064 13.8524 3.80288 14.509C3.3621 15.1747 2.68744 16.1912 2.30964 17.7294C2.14772 18.494 2.06676 19.4206 2.39959 20.3741C2.55251 20.8418 2.81338 21.3186 3.1732 21.7144L3.73991 22.3081C3.9558 22.479 4.19868 22.6319 4.43256 22.7938C4.62146 22.9108 4.81037 23.0097 5.00827 23.0997C4.97228 23.0997 4.9453 23.0997 4.90932 23.1087C4.40557 23.1447 3.66795 23.2166 2.73242 23.4685C2.26466 23.6124 1.74292 23.7743 1.21219 24.1072C0.717445 24.458 0.132742 25.0157 0.0247967 25.8343C-0.0291759 26.2301 0.00680585 26.6259 0.114751 27.0127C0.177719 27.2016 0.240687 27.3905 0.312651 27.5794C0.4116 27.7593 0.501555 27.9662 0.627491 28.1371C1.14023 28.8568 1.9858 29.3335 2.85836 29.5584C3.27215 29.6664 3.69493 29.7473 4.11772 29.7923C4.1537 29.8732 4.18968 29.9722 4.25265 30.0981C4.39658 30.431 4.69343 30.8897 5.16119 31.4205C5.62895 31.9512 6.3126 32.5089 7.23913 32.9407C8.16566 33.3725 9.32607 33.6154 10.6034 33.5794C11.8808 33.5524 13.2481 33.2555 14.6334 32.7338C15.317 32.4819 16.0277 32.1311 16.6933 31.7803C17.323 31.4564 18.0247 31.2046 18.7533 31.0606C19.4819 30.9077 20.2555 30.8717 21.0291 30.9437C21.8027 31.0157 22.5674 31.2316 23.3949 31.5104C24.2225 31.7713 25.1041 32.0861 26.1205 32.1671C26.6243 32.2031 27.173 32.1761 27.7037 32.0052C28.2345 31.8433 28.7292 31.5104 29.098 31.1776C29.4758 30.8538 29.7817 30.5389 30.0875 30.332C30.2405 30.2331 30.4294 30.1521 30.6003 30.0532C30.7802 29.9722 30.9691 29.9182 31.149 29.8463C31.9046 29.6304 32.7142 29.6484 33.5238 29.7653C35.152 30.0172 36.7352 30.6559 38.4083 30.9257C39.2449 31.0606 40.1264 31.0696 40.936 30.9167C41.7456 30.7728 42.4832 30.4849 43.1579 30.1791C44.4892 29.5584 45.6047 28.8927 46.7201 28.5959C47.8175 28.2361 48.861 28.344 49.8865 28.2541C50.921 28.1641 51.7575 27.7503 52.3152 27.3095C53.1878 26.6079 53.4936 25.9602 53.5656 25.6904C53.5926 25.7713 53.6915 25.9422 53.8625 26.1851C54.0604 26.5269 54.4112 27.0307 54.5641 27.7323C54.6361 28.0742 54.6541 28.47 54.5011 28.8388C54.3482 29.2076 54.0424 29.5494 53.6286 29.8463C52.792 30.431 51.6136 30.8178 50.3003 31.1146C48.9779 31.4205 47.4937 31.6094 45.8655 31.8073C44.2373 32.0232 42.5282 32.239 40.7111 32.437C37.077 32.8327 33.074 33.1656 28.8552 33.4714C24.6363 33.8043 20.6153 34.1731 16.9632 34.5059C15.1371 34.6768 13.401 34.8477 11.7728 35.0006C10.1806 35.1985 8.70539 35.2075 7.37407 35.0366C6.05174 34.8657 4.89133 34.4789 4.05475 33.8852C3.20918 33.3005 2.78639 32.4909 2.64247 31.7893C2.61548 31.6094 2.56151 31.4385 2.55251 31.2765C2.55251 31.1146 2.54352 30.9617 2.54352 30.8178C2.51653 30.5299 2.55251 30.287 2.5795 30.0801C2.62448 29.6843 2.62448 29.4595 2.5795 29.4505C2.53452 29.4415 2.45356 29.6394 2.32763 30.0352C2.26466 30.2331 2.1837 30.4849 2.16571 30.7908C2.14772 30.9437 2.12973 31.1146 2.11174 31.2945C2.10274 31.4744 2.13872 31.6633 2.15671 31.8702C2.23767 32.6798 2.67845 33.7053 3.62297 34.4429C4.5495 35.1896 5.81786 35.6753 7.23014 35.9182C8.64242 36.1611 10.2256 36.197 11.8718 36.0441C13.0952 35.9542 14.3995 35.8642 15.7398 35.7653C16.4145 36.188 18.4834 37.1865 21.4879 38.5448C22.4324 38.9676 23.4669 39.4264 24.5733 39.9212C25.1311 40.164 25.7068 40.4159 26.2915 40.6768C26.8852 40.9286 27.5598 41.2525 28.4144 41.2705C29.2959 41.2975 30.1055 40.8297 30.6812 40.3259C31.2749 39.8042 31.7517 39.2825 32.2824 38.7607C33.3259 37.6993 34.3963 36.6018 35.5028 35.4774L35.5658 35.4144C36.0605 35.7383 36.5552 36.0531 37.041 36.368C37.6617 36.7817 38.2824 37.1865 38.8851 37.5913C39.4878 37.9961 40.0905 38.3829 40.6931 38.7517C41.3048 39.1026 41.8086 39.5253 42.6362 39.7862C43.5627 40.0111 44.2733 39.6783 44.903 39.4084C45.2089 39.2465 45.5057 39.0846 45.7666 38.8867C46.0364 38.7068 46.2793 38.5089 46.5132 38.311C47.4487 37.5104 48.1953 36.6828 48.861 35.9092C50.1653 34.353 51.1099 33.0306 51.7575 32.1221C51.9554 31.8432 52.1173 31.6184 52.2613 31.4115C52.5851 31.2765 52.8999 31.1326 53.1878 30.9797C53.2058 31.0786 53.2328 31.1956 53.2688 31.3395C53.3137 31.5554 53.4037 31.8073 53.4667 32.1221C53.5116 32.4369 53.5746 32.7968 53.6376 33.2106C53.6736 33.6243 53.6736 34.0831 53.6915 34.5779C53.6196 35.0726 53.6466 35.6213 53.4936 36.1791C53.3047 37.3215 52.81 38.5718 52.0364 39.7862C51.2538 41.0006 50.1563 42.188 48.7351 43.1235C47.3228 44.059 45.5957 44.7247 43.7066 44.8956C39.7306 45.2195 35.3589 45.5793 30.7712 45.9571C28.4774 46.155 26.2375 46.3529 24.0696 46.5418C21.9017 46.7397 19.8327 46.9646 17.8897 46.9286C13.9947 46.9466 10.6034 45.5703 8.38155 43.6902C6.1237 41.8192 5.08923 39.5433 4.76539 37.9511C4.41457 36.341 4.53151 35.3875 4.41457 35.3875C4.36959 35.3875 4.31562 35.6123 4.25265 36.0621C4.19868 36.5119 4.17169 37.1865 4.28863 38.0411C4.47754 39.7502 5.45804 42.26 7.80585 44.3649C8.96626 45.4174 10.4505 46.3259 12.1506 47.0006C13.8688 47.6662 15.8298 48.044 17.8717 48.089C19.9227 48.161 22.0276 47.9451 24.1865 47.7652C26.3544 47.5853 28.5943 47.3964 30.8881 47.2075C35.4758 46.7937 39.8476 46.4069 43.8236 46.047C45.9195 45.8312 47.8175 45.0396 49.3288 43.9871C50.849 42.9256 52.0094 41.6033 52.801 40.254C53.5926 38.9047 54.0514 37.5284 54.1953 36.296C54.3212 35.6843 54.2583 35.0996 54.2942 34.5779C54.2403 34.0471 54.1953 33.5704 54.1233 33.1476C54.0154 32.7338 53.9164 32.356 53.8355 32.0411C53.7365 31.7263 53.6016 31.4744 53.5206 31.2675C53.4487 31.1146 53.3947 31.0067 53.3497 30.9077C53.6016 30.7638 53.8355 30.6109 54.0514 30.44C54.5191 30.0711 54.8969 29.6034 55.0589 29.0727C55.2298 28.5509 55.1578 28.0382 55.0319 27.6424C54.762 26.8418 54.3212 26.383 54.0514 26.0682C53.7725 25.7983 53.6196 25.6724 53.5656 25.6724C53.5746 25.6274 53.5746 25.6004 53.5656 25.6004C53.4757 25.5374 53.1248 26.2571 52.0274 26.9497C51.4787 27.2826 50.741 27.5794 49.8325 27.5884C49.3737 27.6064 48.87 27.5614 48.3033 27.5614C47.7366 27.5614 47.1069 27.6154 46.4862 27.7683C45.2268 28.0472 44.0035 28.7128 42.7351 29.2526C41.4668 29.8013 40.0905 30.1161 38.6062 29.8103C37.113 29.5494 35.5478 28.8837 33.7127 28.5689C32.8042 28.425 31.7967 28.389 30.8072 28.6589C30.3124 28.8118 29.8537 29.0097 29.3949 29.2975C28.9361 29.6034 28.6033 29.9542 28.2794 30.2331C27.128 31.3935 25.4189 30.8627 23.7727 30.332C22.9452 30.0711 22.0456 29.8103 21.1371 29.7473C20.2375 29.6753 19.347 29.7383 18.5104 29.9182C17.6738 30.0981 16.8822 30.404 16.1716 30.7908C15.4879 31.1686 14.8853 31.4834 14.2376 31.7533C12.9692 32.284 11.7099 32.5989 10.5584 32.6798C9.40703 32.7698 8.35457 32.6079 7.509 32.284C6.66343 31.9512 5.99776 31.5014 5.51201 31.0606C5.03525 30.6199 4.68443 30.2331 4.46854 29.9452C4.42356 29.8912 4.38758 29.8463 4.3426 29.8013C5.68292 29.9182 7.08621 29.7923 8.50749 29.6843C10.4865 29.5314 12.6004 29.3695 14.8313 29.1896C19.284 28.8208 24.1775 28.407 29.3139 27.9842C34.4503 27.5164 39.3348 27.0757 43.7876 26.6799C46.0094 26.464 48.1234 26.2661 50.1024 26.0772C52.0634 25.8973 54.0694 25.6454 55.5986 24.5749C56.3452 24.0532 56.9479 23.3785 57.2987 22.6049C57.6495 21.8493 57.7305 21.0037 57.4606 20.2391ZM31.4009 37.9242C30.3574 38.9856 29.4399 40.164 28.4144 40.137C27.8926 40.146 27.3079 39.9212 26.7142 39.6873C26.1116 39.4444 25.5268 39.2105 24.9691 38.9856C23.8357 38.5448 22.7832 38.1311 21.8297 37.7533C19.284 36.7638 17.368 36.0711 16.3425 35.7563C16.5854 35.7383 16.8193 35.7203 17.0621 35.7023C20.7143 35.4144 24.7263 35.0996 28.9451 34.7668C31.0051 34.6228 33.02 34.4519 34.9541 34.272C34.8371 34.389 34.7202 34.5059 34.6032 34.6318C33.5058 35.7473 32.4353 36.8537 31.4009 37.9242ZM51.3887 31.8343C50.6151 32.6528 49.5716 33.8942 48.2043 35.3425C47.5207 36.0531 46.7561 36.8267 45.8565 37.5284C45.4158 37.8792 44.93 38.203 44.4173 38.4459C43.9315 38.6618 43.3198 38.8417 42.942 38.7068C42.5012 38.5718 41.9075 38.1311 41.3228 37.7712C40.7471 37.3844 40.1624 36.9976 39.5597 36.5928C38.957 36.188 38.3453 35.7743 37.7247 35.3515C37.4098 35.1446 37.095 34.9377 36.7711 34.7218C36.4833 34.5419 36.1954 34.353 35.8986 34.1731C41.5387 33.6154 46.5582 32.8957 50.4982 32.0232C50.84 31.9332 51.1728 31.8343 51.4967 31.7263C51.4607 31.7533 51.4337 31.7893 51.3887 31.8343ZM56.5701 22.2721C56.2642 22.8748 55.7425 23.4235 55.0858 23.8463C53.7815 24.7009 51.9644 24.9078 49.9944 25.0427C48.0154 25.1956 45.9015 25.3575 43.6706 25.5374C39.2179 25.9063 34.3244 26.3201 29.188 26.7428C24.0516 27.2106 19.1671 27.6514 14.7143 28.0472C12.4925 28.2631 10.3785 28.461 8.39954 28.6499C6.42055 28.8478 4.60347 29.0637 3.05626 28.6948C2.29165 28.5239 1.65297 28.1731 1.24818 27.6604C0.861372 27.1566 0.645482 26.455 0.699454 25.9243C0.735436 25.3665 1.12224 24.9348 1.54502 24.6289C1.96781 24.3141 2.44457 24.1252 2.87635 23.9543C4.04576 23.5585 4.90032 23.3875 5.3411 23.2886C7.17617 24.0982 9.41603 24.2691 11.7458 24.2421C14.4984 24.1971 17.4849 23.7564 20.6243 23.4415C23.7817 23.2436 27.218 23.0457 30.7982 22.7309C34.3873 22.425 38.1384 22.0472 42.0245 21.5795C43.9585 21.3366 45.9465 21.1387 47.9795 20.6889C48.9869 20.455 50.0124 20.1582 51.0019 19.6904C51.4967 19.4565 51.9914 19.1687 52.4502 18.7999C52.9179 18.7999 53.5296 18.8269 54.2852 18.9348C54.735 19.0068 55.2298 19.1237 55.7065 19.3576C56.1743 19.5825 56.642 19.9423 56.786 20.473C56.9569 20.9948 56.8849 21.6784 56.5701 22.2721Z" fill="#0E1317" fill-opacity="0.25"/>
<path d="M16.7203 14.0416C17.1161 14.1675 17.4939 14.1585 17.8447 14.1136C20.4264 13.6548 21.9736 12.2695 21.7937 11.9996C21.6228 11.6848 19.8417 12.4944 17.6828 12.8632C17.4399 12.8992 17.224 12.8902 17.0801 12.8542C16.9362 12.8182 16.8642 12.7643 16.7922 12.6743C16.6483 12.4854 16.6303 12.1076 16.7113 11.8197C16.9092 11.199 17.206 10.7313 17.0531 10.6143C16.9362 10.5244 16.4504 10.6773 15.9017 11.4419C15.6588 11.8377 15.4249 12.4854 15.7667 13.232C15.9467 13.6008 16.3245 13.9157 16.7203 14.0416Z" fill="#0E1317" fill-opacity="0.25"/>
<path d="M29.0981 8.92337C29.6828 8.59953 30.5554 8.2757 31.5089 8.30268C32.4624 8.33866 33.308 8.72547 33.8657 9.08529C34.4414 9.4451 34.7742 9.76894 34.9361 9.66999C35.0801 9.59803 34.9991 9.0583 34.4594 8.41962C33.9376 7.78994 32.8852 7.0883 31.5449 7.04332C30.2045 6.99834 29.1071 7.61903 28.5404 8.22172C27.9557 8.82442 27.8477 9.35515 27.9827 9.43611C28.1446 9.54405 28.5044 9.23821 29.0981 8.92337Z" fill="#0E1317" fill-opacity="0.25"/>
<path d="M35.8986 15.4628C36.3574 15.6607 37.095 15.7146 37.8236 15.4448C38.5523 15.1749 39.074 14.6622 39.2989 14.2124C39.5328 13.7626 39.4968 13.4208 39.3439 13.3578C39.011 13.2229 38.3993 13.9245 37.3919 14.2664C36.4024 14.6622 35.4848 14.5272 35.3139 14.8421C35.242 14.986 35.4309 15.2649 35.8986 15.4628Z" fill="#0E1317" fill-opacity="0.25"/>
<path d="M14.4266 17.9363C15.1192 18.1432 15.506 18.8628 15.8299 18.8628C15.9918 18.8538 16.1627 18.575 16.0728 18.0982C15.9918 17.6395 15.587 17.0008 14.8134 16.7399C14.0398 16.488 13.3291 16.7669 12.9963 17.0997C12.6365 17.4326 12.6185 17.7654 12.7444 17.8643C13.0233 18.0532 13.7519 17.6934 14.4266 17.9363Z" fill="#0E1317" fill-opacity="0.25"/>
<path d="M23.9527 18.71C24.3845 18.8359 25.0502 18.8269 25.6889 18.5481C26.3275 18.2692 26.7953 17.8015 27.0022 17.3967C27.2181 16.9919 27.2001 16.677 27.0562 16.5961C26.7413 16.4342 26.1026 17.0189 25.1941 17.3877C24.3036 17.7925 23.44 17.8464 23.341 18.1883C23.2961 18.3592 23.512 18.5841 23.9527 18.71Z" fill="#0E1317" fill-opacity="0.25"/>
<path d="M6.05181 5.47783C6.22273 5.56778 7.14026 3.64276 9.17323 2.13153C11.1882 0.584311 13.2931 0.242484 13.2572 0.05358C13.2482 -0.0183835 12.7084 -0.0453697 11.8539 0.15253C11.0083 0.350429 9.86588 0.818192 8.79542 1.61879C7.72497 2.42837 6.96035 3.39089 6.53757 4.1465C6.11478 4.92011 5.97985 5.45084 6.05181 5.47783Z" fill="#0E1317" fill-opacity="0.25"/>
<path d="M5.52981 2.03267C6.24045 0.917238 7.14899 0.260571 7.05004 0.107649C6.98707 -0.0542692 5.81767 0.422489 4.99908 1.68185C4.1715 2.93221 4.21648 4.20057 4.3784 4.20057C4.55831 4.21856 4.79219 3.13011 5.52981 2.03267Z" fill="#0E1317" fill-opacity="0.25"/>
<path d="M52.0364 8.02339C52.1983 7.9964 51.9015 6.36823 50.7141 4.76704C49.5447 3.15686 48.0784 2.39225 48.0065 2.53617C47.8985 2.6891 49.1129 3.63362 50.2103 5.13585C51.3258 6.63809 51.8565 8.07736 52.0364 8.02339Z" fill="#0E1317" fill-opacity="0.25"/>
<path d="M54.0245 6.7193C54.1864 6.66533 53.8896 5.43295 53.089 4.11962C52.2884 2.79729 51.3349 1.96971 51.209 2.08665C51.074 2.20359 51.7847 3.18409 52.5493 4.44345C53.3139 5.70282 53.8536 6.78227 54.0245 6.7193Z" fill="#0E1317" fill-opacity="0.25"/>
</svg>
