<svg width="52" height="52" viewBox="0 0 52 52" fill="none" xmlns="http://www.w3.org/2000/svg">
<path d="M6.43503 36.2049C6.37056 36.2167 6.3045 36.2167 6.24003 36.2049C6.15947 36.1799 6.08508 36.1383 6.02169 36.0826C5.95829 36.027 5.90731 35.9586 5.87206 35.882C5.83681 35.8054 5.81808 35.7222 5.81709 35.6378C5.81609 35.5535 5.83285 35.4699 5.86628 35.3924C6.74378 32.8249 5.05378 31.7606 4.98065 31.7118C4.85196 31.6251 4.76122 31.4925 4.72695 31.3411C4.69269 31.1897 4.71747 31.0309 4.79626 30.8972C4.87504 30.7635 5.00189 30.6649 5.15091 30.6215C5.29992 30.5781 5.45989 30.5932 5.59815 30.6637C6.51628 31.1999 7.9869 32.9631 7.0119 35.7824C6.97364 35.9053 6.89694 36.0127 6.7931 36.0888C6.68925 36.1648 6.56374 36.2055 6.43503 36.2049Z" fill="#0E1317" fill-opacity="0.25"/>
<path d="M31.4277 30.534C31.2661 30.534 31.1111 30.4698 30.9968 30.3555C30.8826 30.2412 30.8184 30.0862 30.8184 29.9246C30.8184 29.763 30.8826 29.608 30.9968 29.4937C31.1111 29.3794 31.2661 29.3152 31.4277 29.3152C40.8121 28.8277 49.1646 23.5627 49.4327 19.5652C49.5546 17.729 48.474 16.0796 47.4015 14.6902C47.3036 14.5619 47.2607 14.4001 47.282 14.2401C47.3033 14.0802 47.3872 13.9353 47.5152 13.8371C47.6433 13.7404 47.8039 13.6974 47.9632 13.7171C48.1224 13.7368 48.2677 13.8177 48.3684 13.9427C49.5059 15.4133 50.8059 17.3796 50.6434 19.6302C50.2859 24.6677 40.7959 30.0627 31.4602 30.534H31.4277Z" fill="#0E1317" fill-opacity="0.25"/>
<path d="M11.375 38.7399C11.2625 38.7392 11.1524 38.7078 11.0565 38.6491C10.9605 38.5904 10.8824 38.5066 10.8306 38.4068C10.7944 38.3359 10.7726 38.2586 10.7664 38.1792C10.7603 38.0999 10.77 38.0201 10.7949 37.9445C10.8199 37.8689 10.8596 37.799 10.9117 37.7389C10.9639 37.6788 11.0275 37.6296 11.0988 37.5943C15.0252 35.5122 19.0985 33.7199 23.2863 32.2318C24.7 31.7199 26.3006 31.1349 28.3806 30.3143C28.5315 30.2561 28.6993 30.2602 28.8471 30.3257C28.9949 30.3913 29.1106 30.5128 29.1688 30.6637C29.2269 30.8145 29.2228 30.9823 29.1573 31.1301C29.0918 31.2779 28.9702 31.3936 28.8194 31.4518C26.7313 32.2643 25.1225 32.8574 23.7088 33.3774C19.5669 34.843 15.5394 36.6137 11.6594 38.6749C11.5721 38.7217 11.4739 38.7441 11.375 38.7399Z" fill="#0E1317" fill-opacity="0.25"/>
<path d="M43.1598 20.914C43.0566 20.9133 42.9552 20.886 42.8656 20.8348C42.7759 20.7835 42.701 20.7101 42.6479 20.6215C42.6073 20.5565 38.1873 13.764 23.4404 7.36959L23.3104 7.31271C23 7.09506 22.7385 6.81496 22.5426 6.49036C22.3467 6.16575 22.2208 5.80381 22.1729 5.42771C22.1447 4.36307 22.5026 3.32415 23.1804 2.50271C23.8206 1.84647 24.6328 1.38401 25.5238 1.16844C26.4148 0.952865 27.3486 0.992905 28.2179 1.28396C32.3454 2.63271 42.5586 6.59771 48.3354 13.9752C48.4071 14.0776 48.4455 14.1996 48.4455 14.3246C48.4455 14.4496 48.4071 14.5716 48.3354 14.674C48.2675 14.7801 48.1691 14.8633 48.0531 14.9126C47.9372 14.9619 47.809 14.975 47.6854 14.9502C47.2585 14.8809 46.8219 14.8999 46.4026 15.0061C45.9834 15.1123 45.5904 15.3035 45.2479 15.5677C44.2323 16.3802 43.7367 18.0052 43.7773 20.2883C43.7814 20.4219 43.7414 20.5531 43.6636 20.6618C43.5858 20.7704 43.4745 20.8505 43.3467 20.8896C43.286 20.907 43.223 20.9152 43.1598 20.914ZM23.9929 6.28896C35.2786 11.1721 40.6248 16.2502 42.6236 18.6065C42.693 17.0873 43.3586 15.6567 44.4761 14.6252C45.0723 14.1454 45.7891 13.839 46.5479 13.7396C40.8686 7.24771 31.6873 3.68896 27.8361 2.43771C27.1905 2.22172 26.4976 2.18939 25.8348 2.34434C25.1719 2.4993 24.5652 2.83543 24.0823 3.31521C23.6425 3.87705 23.3998 4.56801 23.3917 5.28146C23.4166 5.4808 23.4829 5.67271 23.5865 5.84484C23.69 6.01697 23.8285 6.16549 23.9929 6.28084V6.28896Z" fill="#0E1317" fill-opacity="0.25"/>
<path d="M3.63188 50.9845C3.32797 50.9819 3.02735 50.9213 2.74626 50.8057C1.12126 50.1882 1.38938 48.3195 1.72251 45.9307C2.22234 43.3725 2.20853 40.7404 1.68188 38.1876C0.609383 33.8895 2.58376 29.0388 4.42001 25.2932C6.31837 21.414 8.90944 17.9143 12.0656 14.9663C15.6037 11.8116 19.3674 8.91953 23.3269 6.31321C23.4554 6.22927 23.6111 6.19765 23.7622 6.22484C23.9133 6.25204 24.0482 6.33597 24.1394 6.45946C24.2214 6.58853 24.2519 6.74373 24.2248 6.89425C24.1977 7.04476 24.115 7.17958 23.9931 7.27196C20.0808 9.84511 16.3606 12.6991 12.8619 15.8113C9.82263 18.6744 7.33326 22.0698 5.51688 25.8295C3.77001 29.3882 1.89313 33.9545 2.86001 37.8626C3.43059 40.5853 3.45269 43.3944 2.92501 46.1257C2.63251 48.2138 2.50251 49.3757 3.18501 49.6682C3.32832 49.7446 3.49002 49.7798 3.65212 49.7697C3.81422 49.7597 3.97035 49.7048 4.10313 49.6113C4.67188 49.197 5.24063 47.7751 5.10251 45.0451C4.96438 42.3151 7.45063 41.072 9.10813 40.2838C9.66063 40.0157 10.5056 39.6176 10.5788 39.3982C11.0094 35.1976 13.0569 32.9876 14.8931 32.6301C19.2806 31.5088 19.6544 31.1513 20.6538 30.1926C21.1146 29.7358 21.6002 29.3045 22.1081 28.9007C23.0385 28.1413 24.1657 27.6622 25.3581 27.5195C25.8237 27.4372 26.3013 27.4532 26.7603 27.5665C27.2192 27.6799 27.6494 27.888 28.0231 28.1776C29.25 29.2501 29.3475 31.2001 29.4369 32.9307C29.4775 33.6295 29.8106 33.7432 29.9163 33.7432C30.1838 33.8011 30.462 33.7865 30.722 33.7008C30.982 33.6151 31.2144 33.4614 31.395 33.2557C31.5058 33.1554 31.5797 33.0207 31.6048 32.8734C31.6298 32.726 31.6046 32.5745 31.5331 32.4432C30.7856 30.9482 30.42 28.5188 31.2163 26.967C31.3849 26.601 31.6416 26.2825 31.9635 26.04C32.2854 25.7975 32.6623 25.6387 33.0606 25.5776C33.1118 25.5695 33.1639 25.5695 33.215 25.5776C37.0825 25.9351 39.9019 25.3013 41.34 23.7576C41.7663 23.3043 42.0918 22.7658 42.2948 22.1776C42.4979 21.5894 42.574 20.9648 42.5181 20.3451C42.4994 20.2629 42.4979 20.1777 42.5138 20.0949C42.5297 20.0122 42.5625 19.9336 42.6103 19.8642C42.6581 19.7947 42.7198 19.736 42.7915 19.6916C42.8631 19.6472 42.9432 19.6182 43.0267 19.6064C43.1101 19.5945 43.1951 19.6001 43.2763 19.6228C43.3575 19.6455 43.4331 19.6848 43.4983 19.7382C43.5635 19.7916 43.6169 19.8579 43.6552 19.933C43.6935 20.0081 43.7158 20.0903 43.7206 20.1745C43.8098 20.9787 43.7246 21.7927 43.4709 22.5611C43.2171 23.3294 42.8007 24.0341 42.25 24.627C40.5194 26.4713 37.4644 27.2188 33.1906 26.8126C32.9957 26.8553 32.8134 26.943 32.6583 27.0685C32.5031 27.194 32.3794 27.354 32.2969 27.5357C31.7363 28.6407 32.0125 30.6882 32.6219 31.9151C32.8111 32.2687 32.8832 32.6732 32.8277 33.0704C32.7722 33.4676 32.5921 33.8369 32.3131 34.1251C31.9708 34.5096 31.5269 34.7898 31.0325 34.9335C30.5382 35.0772 30.0133 35.0786 29.5181 34.9376C29.1285 34.7911 28.7941 34.527 28.5611 34.182C28.3282 33.837 28.2084 33.4281 28.2181 33.012C28.145 31.517 28.0556 29.8351 27.1944 29.112C26.9469 28.9312 26.6645 28.8039 26.3652 28.7382C26.0658 28.6725 25.7561 28.6697 25.4556 28.7301C24.504 28.8547 23.6062 29.2431 22.8638 29.8513C22.3878 30.2335 21.9322 30.6403 21.4988 31.0701C20.28 32.2482 19.6788 32.6951 15.1613 33.8245C13.7313 34.1007 12.1388 36.132 11.7894 39.512C11.7894 40.3895 10.79 40.8688 9.62813 41.4213C7.69438 42.3476 6.22376 43.2007 6.32126 45.0207C6.45938 47.8401 5.92313 49.8388 4.81813 50.6432C4.46815 50.8783 4.05326 50.9976 3.63188 50.9845Z" fill="#0E1317" fill-opacity="0.25"/>
<path d="M29.3393 24.0092C28.476 24.0248 27.6179 23.873 26.8124 23.5623C26.3284 23.422 25.8922 23.1516 25.5512 22.7806C25.2103 22.4095 24.9776 21.9521 24.8786 21.458C24.8528 20.954 24.9647 20.4525 25.2023 20.0074C25.44 19.5622 25.7943 19.1901 26.2274 18.9311C27.2443 18.239 28.4166 17.8092 29.6399 17.6798C30.8547 17.4995 32.0954 17.6281 33.2474 18.0536C33.732 18.1943 34.169 18.4646 34.5113 18.8355C34.8535 19.2063 35.0879 19.6636 35.1893 20.158C35.2161 20.663 35.1037 21.1657 34.8645 21.6113C34.6252 22.0569 34.2682 22.4282 33.8324 22.6848C32.8182 23.3777 31.649 23.8102 30.428 23.9442C30.0665 23.9853 29.7031 24.007 29.3393 24.0092ZM30.7449 18.8255C30.4271 18.8247 30.1096 18.8437 29.7943 18.8823C28.7794 18.9914 27.8062 19.3455 26.9586 19.9142C26.3493 20.3611 26.0405 20.8648 26.0974 21.3036C26.1543 21.7423 26.5768 22.1567 27.2755 22.433C28.2373 22.7802 29.2702 22.8835 30.2818 22.7336C31.2997 22.6268 32.276 22.2725 33.1255 21.7017C33.7268 21.2548 34.0436 20.7511 33.9868 20.3123C33.9299 19.8736 33.4993 19.4592 32.8086 19.183C32.1491 18.9358 31.4491 18.8145 30.7449 18.8255Z" fill="#0E1317" fill-opacity="0.25"/>
<path d="M20.914 17.0626C19.6059 17.0626 18.5659 16.5832 18.2084 15.6976C18.078 15.2749 18.0651 14.8248 18.171 14.3954C18.2769 13.9661 18.4977 13.5736 18.8096 13.2601C19.5224 12.4571 20.4165 11.8359 21.4177 11.4482C23.7984 10.4894 26.114 10.8469 26.6909 12.2607C26.8212 12.6833 26.8341 13.1334 26.7282 13.5628C26.6223 13.9922 26.4015 14.3847 26.0896 14.6982C25.3786 15.5031 24.4839 16.1246 23.4815 16.5101C22.668 16.8539 21.7969 17.0414 20.914 17.0626ZM24.0177 12.1063C23.2808 12.1175 22.5528 12.2691 21.8727 12.5532C21.0589 12.8637 20.3316 13.3653 19.7521 14.0157C19.5845 14.1664 19.4583 14.3575 19.3858 14.5709C19.3132 14.7843 19.2967 15.0128 19.3377 15.2344C19.6059 15.9088 21.2471 16.1201 23.0265 15.3969C23.8509 15.096 24.5918 14.603 25.1877 13.9588C25.5777 13.4876 25.7321 13.0488 25.6021 12.7401C25.4721 12.4313 24.8221 12.1307 24.0177 12.1307V12.1063Z" fill="#0E1317" fill-opacity="0.25"/>
<path d="M10.8145 30.2658C10.4931 30.2681 10.1722 30.2409 9.85572 30.1846C9.34404 30.1233 8.85708 29.93 8.44259 29.6237C8.02809 29.3175 7.7003 28.9088 7.49135 28.4377C6.77635 26.6746 8.23072 24.4727 10.7982 23.4327C11.8988 22.9621 13.1101 22.8128 14.292 23.0021C14.8003 23.0603 15.2849 23.2487 15.6991 23.549C16.1133 23.8494 16.443 24.2515 16.6563 24.7165C16.8337 25.2031 16.8805 25.7277 16.7921 26.238C16.7037 26.7483 16.4832 27.2266 16.1526 27.6252C15.4353 28.5807 14.464 29.3155 13.3495 29.7458C12.5454 30.0794 11.6849 30.256 10.8145 30.2658ZM13.3332 24.164C12.6213 24.1723 11.9177 24.3185 11.2613 24.5946C9.38447 25.3583 8.17385 26.9183 8.62072 28.0071C8.76695 28.2762 8.97655 28.5056 9.23137 28.6755C9.4862 28.8454 9.77858 28.9506 10.0832 28.9821C11.0353 29.1299 12.0097 29.006 12.8945 28.6246C13.7931 28.28 14.578 27.692 15.1613 26.9265C15.3599 26.6887 15.4971 26.4058 15.5608 26.1027C15.6246 25.7995 15.6129 25.4853 15.527 25.1877C15.3812 24.9175 15.1719 24.6869 14.9171 24.5156C14.6623 24.3443 14.3697 24.2376 14.0645 24.2046C13.8223 24.1703 13.5777 24.1567 13.3332 24.164Z" fill="#0E1317" fill-opacity="0.25"/>
<path d="M17.0137 20.8975C16.2095 20.9579 15.4078 20.752 14.7323 20.3114C14.0568 19.8709 13.5451 19.2203 13.2762 18.46C13.2486 18.3815 13.2374 18.2983 13.2432 18.2154C13.249 18.1324 13.2717 18.0515 13.3099 17.9777C13.3481 17.9039 13.401 17.8386 13.4654 17.786C13.5298 17.7334 13.6042 17.6945 13.6842 17.6717C13.7642 17.649 13.8479 17.6428 13.9304 17.6536C14.0128 17.6644 14.0922 17.692 14.1635 17.7346C14.2349 17.7773 14.2968 17.8341 14.3454 17.9015C14.394 17.969 14.4283 18.0456 14.4462 18.1268C14.5112 18.3381 15.1287 20.1093 17.8993 19.63C17.9783 19.6166 18.0591 19.619 18.1372 19.6369C18.2152 19.6548 18.289 19.6879 18.3542 19.7343C18.4195 19.7807 18.475 19.8395 18.5175 19.9073C18.5601 19.9751 18.5888 20.0507 18.6021 20.1297C18.6155 20.2086 18.6131 20.2894 18.5952 20.3675C18.5774 20.4455 18.5443 20.5193 18.4979 20.5846C18.4515 20.6498 18.3927 20.7053 18.3248 20.7478C18.257 20.7904 18.1814 20.8191 18.1025 20.8325C17.742 20.8841 17.3778 20.9059 17.0137 20.8975Z" fill="#0E1317" fill-opacity="0.25"/>
<path d="M18.0051 29.5101C17.8922 29.5112 17.7813 29.4806 17.685 29.4217C17.5887 29.3628 17.511 29.278 17.4607 29.177C17.3912 29.0341 17.3794 28.8699 17.4278 28.7186C17.4762 28.5673 17.5811 28.4404 17.7207 28.3645C18.3507 27.9855 18.8883 27.4709 19.2944 26.8582C19.7006 26.2454 19.9652 25.5498 20.0688 24.822C20.0891 24.6608 20.1722 24.5141 20.2999 24.4137C20.4277 24.3133 20.5899 24.2673 20.7513 24.2857C20.8305 24.2947 20.9071 24.3194 20.9767 24.3583C21.0462 24.3973 21.1074 24.4496 21.1565 24.5124C21.2056 24.5751 21.2418 24.647 21.2629 24.7239C21.284 24.8007 21.2896 24.881 21.2794 24.9601C21.1587 25.888 20.8253 26.7755 20.3053 27.5535C19.7852 28.3314 19.0926 28.9788 18.2813 29.4451C18.1959 29.4891 18.1011 29.5114 18.0051 29.5101Z" fill="#0E1317" fill-opacity="0.25"/>
<path d="M33.3775 16.2498C32.6218 16.2939 31.8677 16.1402 31.1895 15.804C30.5112 15.4677 29.9324 14.9605 29.51 14.3323C29.4385 14.1923 29.423 14.0304 29.4668 13.8794C29.5106 13.7284 29.6103 13.5998 29.7456 13.5198C29.8848 13.4442 30.0482 13.4265 30.2003 13.4706C30.3525 13.5147 30.481 13.6171 30.5581 13.7555C30.6069 13.8286 31.4762 15.2505 33.865 15.0392C33.9447 15.0314 34.0251 15.0396 34.1015 15.0633C34.178 15.0869 34.2489 15.1256 34.3102 15.1771C34.3715 15.2286 34.4219 15.2917 34.4585 15.3629C34.495 15.4341 34.517 15.5119 34.5231 15.5917C34.5367 15.7521 34.4861 15.9114 34.3826 16.0347C34.2791 16.158 34.131 16.2354 33.9706 16.2498H33.3775Z" fill="#0E1317" fill-opacity="0.25"/>
</svg>
