<svg width="293" height="293" viewBox="0 0 293 293" fill="none" xmlns="http://www.w3.org/2000/svg">
<g clip-path="url(#clip0_64_1171)">
<path d="M121.107 102.736C115.317 102.736 110.606 107.447 110.606 113.238C110.606 119.028 115.317 123.739 121.107 123.739C126.898 123.739 131.609 119.028 131.609 113.238C131.608 107.447 126.897 102.736 121.107 102.736ZM121.107 117.613C118.695 117.613 116.731 115.65 116.731 113.237C116.731 110.825 118.694 108.861 121.107 108.861C123.521 108.861 125.484 110.824 125.484 113.237C125.484 115.651 123.52 117.613 121.107 117.613Z" fill="white" fill-opacity="0.2"/>
<path d="M114.964 76.9046C114.964 85.5258 121.977 92.5397 130.598 92.5397C139.22 92.5397 146.233 85.5258 146.233 76.9046C146.233 68.2835 139.22 61.2695 130.598 61.2695C121.977 61.2695 114.964 68.2835 114.964 76.9046ZM140.108 76.9046C140.108 82.1484 135.842 86.4145 130.598 86.4145C125.355 86.4145 121.089 82.1484 121.089 76.9046C121.089 71.6609 125.355 67.3947 130.598 67.3947C135.843 67.3947 140.108 71.6609 140.108 76.9046Z" fill="white" fill-opacity="0.2"/>
<path d="M99.4242 75.9933C98.0227 75.0458 96.119 75.4133 95.1721 76.8147C93.4117 79.4173 90.5023 84.6831 90.7865 90.7072C90.8636 92.3475 92.2179 93.6258 93.8429 93.6258C93.8913 93.6258 93.9403 93.6246 93.9893 93.6228C95.6792 93.5431 96.9845 92.1086 96.9043 90.4193C96.704 86.1641 98.9115 82.2189 100.246 80.2466C101.192 78.8446 100.825 76.9409 99.4242 75.9933Z" fill="white" fill-opacity="0.2"/>
<path d="M196.291 103.681C202.081 103.681 206.792 98.9699 206.792 93.1798C206.792 87.3891 202.081 82.6782 196.291 82.6782C190.5 82.6782 185.789 87.3891 185.789 93.1798C185.79 98.9699 190.501 103.681 196.291 103.681ZM196.291 88.8034C198.703 88.8034 200.667 90.7665 200.667 93.1798C200.667 95.5931 198.704 97.5556 196.291 97.5556C193.877 97.5556 191.914 95.5925 191.914 93.1798C191.914 90.7671 193.878 88.8034 196.291 88.8034Z" fill="white" fill-opacity="0.2"/>
<path d="M63.134 136.694C54.5128 136.694 47.4995 129.681 47.4995 121.059C47.4995 112.438 54.5128 105.424 63.134 105.424C71.7551 105.424 78.7691 112.438 78.7691 121.059C78.7691 129.681 71.7551 136.694 63.134 136.694ZM63.134 111.549C57.8902 111.549 53.6247 115.816 53.6247 121.059C53.6247 126.303 57.8908 130.569 63.134 130.569C68.3783 130.569 72.6439 126.303 72.6439 121.059C72.6439 115.816 68.3783 111.549 63.134 111.549Z" fill="white" fill-opacity="0.2"/>
<path d="M90.3614 157.726C96.1516 157.726 100.863 153.015 100.863 147.225C100.863 141.434 96.1522 136.724 90.3614 136.724C84.5707 136.724 79.8599 141.434 79.8599 147.225C79.8599 153.015 84.5713 157.726 90.3614 157.726ZM90.3614 142.849C92.7741 142.849 94.7379 144.812 94.7379 147.225C94.7379 149.639 92.7748 151.601 90.3614 151.601C87.9481 151.601 85.985 149.638 85.985 147.225C85.985 144.813 87.9481 142.849 90.3614 142.849Z" fill="white" fill-opacity="0.2"/>
<path d="M232.117 98.8634C223.495 98.8634 216.482 91.8495 216.482 83.2283C216.482 74.6072 223.495 67.5933 232.117 67.5933C240.738 67.5933 247.752 74.6072 247.752 83.2283C247.752 91.8495 240.738 98.8634 232.117 98.8634ZM232.117 73.7178C226.873 73.7178 222.607 77.984 222.607 83.2277C222.607 88.4715 226.874 92.7377 232.117 92.7377C237.361 92.7377 241.627 88.4715 241.627 83.2277C241.627 77.984 237.36 73.7178 232.117 73.7178Z" fill="white" fill-opacity="0.2"/>
<path d="M45.8365 152.428C47.211 155.254 50.317 160.407 55.6747 163.172C57.1466 163.94 59.0215 163.373 59.8006 161.855C60.5767 160.352 59.9868 158.505 58.4837 157.729C54.6996 155.777 52.3861 151.891 51.3442 149.749C50.6049 148.229 48.7729 147.595 47.2502 148.335C45.7293 149.074 45.0966 150.907 45.8365 152.428Z" fill="white" fill-opacity="0.2"/>
<path d="M105.134 202.764C110.924 202.764 115.636 198.053 115.636 192.263C115.636 186.472 110.925 181.761 105.134 181.761C99.3434 181.761 94.6325 186.472 94.6325 192.263C94.6325 198.053 99.3434 202.764 105.134 202.764ZM105.134 187.887C107.547 187.887 109.511 189.85 109.511 192.263C109.511 194.677 107.547 196.639 105.134 196.639C102.721 196.639 100.758 194.676 100.758 192.263C100.758 189.851 102.721 187.887 105.134 187.887ZM68.5388 218.123C59.9176 218.123 52.9043 211.109 52.9043 202.488C52.9043 193.867 59.9176 186.853 68.5388 186.853C77.1599 186.853 84.1738 193.867 84.1738 202.488C84.1738 211.109 77.1599 218.123 68.5388 218.123ZM68.5388 192.978C63.295 192.978 59.0295 197.244 59.0295 202.488C59.0295 207.732 63.2956 211.998 68.5388 211.998C73.7831 211.998 78.0487 207.732 78.0487 202.488C78.0487 197.244 73.7825 192.978 68.5388 192.978Z" fill="white" fill-opacity="0.2"/>
<path d="M86.6521 232.959C87.2365 233.001 87.9207 233.031 88.6808 233.031C91.9957 233.031 96.747 232.462 100.875 229.812C102.298 228.898 102.712 227.003 101.798 225.58C100.885 224.156 98.99 223.743 97.5665 224.657C93.9809 226.959 89.4611 227.017 87.0864 226.85C83.1394 226.509 82.6775 232.736 86.6521 232.959Z" fill="white" fill-opacity="0.2"/>
<path d="M150.866 211.957C156.656 211.957 161.368 207.246 161.368 201.456C161.368 195.665 156.657 190.955 150.866 190.955C145.076 190.955 140.365 195.665 140.365 201.456C140.365 207.246 145.076 211.957 150.866 211.957ZM150.866 197.08C153.279 197.08 155.243 199.043 155.243 201.456C155.243 203.869 153.28 205.832 150.866 205.832C148.453 205.832 146.49 203.869 146.49 201.456C146.49 199.043 148.453 197.08 150.866 197.08Z" fill="white" fill-opacity="0.2"/>
<path d="M157.01 237.788C157.01 229.167 149.996 222.153 141.375 222.153C132.754 222.153 125.74 229.167 125.74 237.788C125.74 246.41 132.754 253.423 141.375 253.423C149.996 253.423 157.01 246.41 157.01 237.788ZM131.865 237.788C131.865 232.545 136.131 228.278 141.374 228.278C146.619 228.278 150.884 232.545 150.884 237.788C150.884 243.032 146.618 247.298 141.374 247.298C136.131 247.298 131.865 243.032 131.865 237.788Z" fill="white" fill-opacity="0.2"/>
<path d="M172.549 238.7C173.932 239.64 175.849 239.29 176.801 237.878C178.562 235.275 181.471 230.01 181.186 223.986C181.107 222.297 179.675 221.001 177.983 221.072C176.294 221.152 174.988 222.586 175.069 224.276C175.27 228.53 173.062 232.475 171.728 234.448C170.781 235.848 171.149 237.752 172.549 238.7Z" fill="white" fill-opacity="0.2"/>
<path d="M208.336 208.395C199.715 208.395 192.702 201.381 192.702 192.76C192.702 184.139 199.715 177.125 208.336 177.125C216.958 177.125 223.971 184.139 223.971 192.76C223.971 201.381 216.958 208.395 208.336 208.395ZM208.336 183.25C203.093 183.25 198.827 187.516 198.827 192.76C198.827 198.004 203.093 202.27 208.336 202.27C213.581 202.27 217.846 198.004 217.846 192.76C217.846 187.516 213.581 183.25 208.336 183.25Z" fill="white" fill-opacity="0.2"/>
<path d="M181.518 176.822C187.308 176.822 192.02 172.111 192.02 166.321C192.02 160.53 187.309 155.819 181.518 155.819C175.727 155.819 171.016 160.53 171.016 166.321C171.017 172.111 175.728 176.822 181.518 176.822ZM181.518 161.945C183.931 161.945 185.894 163.908 185.894 166.322C185.894 168.735 183.931 170.697 181.518 170.697C179.105 170.697 177.142 168.734 177.142 166.322C177.142 163.909 179.105 161.945 181.518 161.945Z" fill="white" fill-opacity="0.2"/>
<path d="M213.489 156.965C217.275 158.918 219.587 162.803 220.628 164.944C221.37 166.481 223.234 167.092 224.722 166.359C226.243 165.62 226.877 163.788 226.137 162.266C224.763 159.441 221.659 154.287 216.299 151.521C214.796 150.746 212.949 151.335 212.173 152.838C211.396 154.342 211.986 156.189 213.489 156.965Z" fill="white" fill-opacity="0.2"/>
<path d="M291.958 79.3742C278.278 43.5071 249.892 14.9988 214.081 1.1596C205.812 -2.24844 195.657 2.87158 193.53 11.5662L162.606 126.976C161.965 129.109 164.064 131.305 166.223 130.76L185.965 126.409V136.039C185.965 137.634 186.28 139.153 186.836 140.552L140.317 153.016L169.883 42.6716C172.374 34.1368 166.239 24.6343 157.433 23.4043C119.708 17.1542 79.9175 27.7232 50.3097 51.8545C46.1146 55.2196 43.9346 60.7678 44.7468 66.0863C39.429 65.26 33.871 67.4228 30.4911 71.6093C6.20855 101.204 -4.47372 141.043 1.72922 178.861C2.41953 183.165 4.91553 186.994 8.57838 189.367C9.44447 189.928 10.3614 190.39 11.3077 190.763C7.93095 194.983 7.05321 200.899 9.01816 205.939C22.8598 241.929 51.471 270.417 87.5157 284.099C92.5482 286.039 98.4773 285.143 102.682 281.748C104.64 286.753 109.301 290.467 114.608 291.266C152.265 297.274 191.847 286.574 221.296 262.414C225.482 259.034 227.646 253.477 226.818 248.16C232.296 249.013 237.874 246.604 241.305 242.281C260.619 218.299 271.251 188.127 271.251 157.272C271.251 150.16 270.693 143.015 269.592 136.035C268.182 125.681 256.527 120.397 247.288 124.352V110.869L281.528 99.8665C290.201 97.7442 295.32 87.6364 291.958 79.3742ZM222.765 130.924L210.49 134.213V112.624C210.49 109.24 213.243 106.487 216.627 106.487C220.011 106.487 222.765 109.24 222.765 112.624V130.924H222.765ZM209.522 140.813L222.765 137.265V148.305C222.765 155.066 228.265 160.567 235.027 160.567C236.469 160.567 237.847 160.304 239.133 159.845C238.587 184.958 228.32 209.757 210.936 227.964L141.903 158.932L190.856 145.815C192.911 147.368 195.459 148.301 198.227 148.301C203.296 148.301 207.656 145.209 209.522 140.813ZM61.0385 86.7287L130.07 155.761L35.5272 181.094C27.4371 147.738 37.3127 111.531 61.0385 86.7287ZM131.655 161.678L106.322 256.221C73.3893 246.549 46.9733 219.894 37.355 186.945L131.655 161.678ZM137.572 163.263L206.782 232.473C181.94 256.158 145.647 265.708 112.305 257.563L137.572 163.263ZM134.401 151.43L65.1914 82.2193C90.0344 58.5346 126.327 48.9842 159.669 57.1301L134.401 151.43ZM54.1673 56.6125C82.4343 33.5721 120.435 23.4815 156.454 29.4499C161.778 30.1806 165.485 35.9315 163.968 41.0852L161.253 51.2187C125.819 42.4934 87.2303 52.6648 60.8609 77.8888L51.9653 68.9939C49.6065 64.2444 50.6894 59.4301 54.1673 56.6125ZM7.77721 177.89C1.85602 141.779 12.0526 103.739 35.2381 75.4804C38.5347 71.2283 45.3753 70.881 49.0828 74.7736L56.7111 82.4012C31.4381 108.724 20.9518 147.231 29.6116 182.679L19.4138 185.411C14.2625 186.907 8.49446 183.225 7.77721 177.89ZM89.6902 278.373C55.2729 265.308 27.9523 238.105 14.736 203.74C12.6939 198.744 15.7485 192.593 21.0173 191.323L31.4448 188.529C41.6046 223.578 69.7087 251.911 104.737 262.136L102.097 271.99C99.7789 278.843 92.1788 279.317 89.6902 278.373ZM218.132 243.823C222.028 247.535 221.675 254.369 217.425 257.668C189.309 280.736 151.507 290.952 115.553 285.214C110.208 284.521 106.516 278.732 108.014 273.577L110.721 263.474C146.154 272.2 184.744 262.028 211.113 236.804L218.103 243.795C218.112 243.802 218.124 243.815 218.132 243.823ZM251.905 129.457C257.058 127.96 262.84 131.648 263.542 136.99C264.594 143.655 265.127 150.479 265.127 157.273C265.127 186.863 254.887 215.795 236.293 238.739C233.005 243.006 226.158 243.364 222.44 239.469L215.263 232.292C234.933 211.77 245.953 183.422 245.27 155.028C246.543 153.096 247.289 150.787 247.289 148.305V130.694L251.905 129.457ZM243.206 105.816C241.982 106.249 241.164 107.405 241.164 108.703V148.305C241.164 151.689 238.411 154.442 235.027 154.442C231.643 154.442 228.889 151.689 228.889 148.305V112.624C228.889 105.862 223.388 100.361 216.626 100.361C209.864 100.361 204.364 105.862 204.364 112.624V136.039C204.364 139.423 201.61 142.176 198.226 142.176C194.842 142.176 192.089 139.423 192.089 136.039V122.597C192.137 120.698 190.21 119.151 188.367 119.606L169.826 123.693L195.155 29.1644C228.158 39.2134 254.15 65.3929 263.956 98.4755L243.206 105.816ZM286.235 81.5572C287.943 86.0298 286.101 91.4548 280.937 93.6838L269.818 96.6637C259.393 61.5831 231.778 33.8355 196.744 23.2402L199.447 13.1508C200.716 7.87767 206.878 4.82122 211.873 6.87254C246.068 20.0876 273.172 47.309 286.235 81.5572Z" fill="white" fill-opacity="0.2"/>
<path d="M215.076 52.6001C211.945 52.3777 205.927 52.4898 200.852 55.7478C199.428 56.6617 199.016 58.5562 199.93 59.9797C200.849 61.4148 202.758 61.8086 204.161 60.9021C207.746 58.6003 212.269 58.5415 214.641 58.7093C216.323 58.8355 217.793 57.559 217.913 55.8715C218.034 54.1847 216.763 52.7195 215.076 52.6001Z" fill="white" fill-opacity="0.2"/>
</g>
<defs>
<clipPath id="clip0_64_1171">
<rect width="293" height="293" fill="white"/>
</clipPath>
</defs>
</svg>
