<svg width="83" height="65" viewBox="0 0 83 65" fill="none" xmlns="http://www.w3.org/2000/svg">
<path d="M0 7.20789L3.54597 3.60395C5.50435 1.61354 8.67952 1.61354 10.6379 3.60394C12.5963 5.59435 12.5963 8.82142 10.6379 10.8118L7.09193 14.4158L0 7.20789Z" fill="#EB0029"/>
<path d="M17.208 7.35352L20.753 3.74864C22.7109 1.75773 25.8852 1.75773 27.8431 3.74864C29.801 5.73956 29.801 8.96747 27.8431 10.9584L24.2981 14.5633L17.208 7.35352Z" fill="#EB0029"/>
<path d="M34.4121 7.49902L37.9571 3.89415C39.915 1.90324 43.0893 1.90324 45.0472 3.89415C47.0051 5.88507 47.0051 9.11298 45.0472 11.1039L41.5022 14.7088L34.4121 7.49902Z" fill="#EB0029"/>
<path d="M51.6152 7.64465L55.1603 4.03978C57.1181 2.04887 60.2925 2.04887 62.2503 4.03978C64.2082 6.0307 64.2082 9.25861 62.2503 11.2495L58.7053 14.8544L51.6152 7.64465Z" fill="#EB0029"/>
<path d="M68.8203 7.79028L72.3653 4.18541C74.3232 2.19449 77.4975 2.1945 79.4554 4.18541C81.4133 6.17633 81.4133 9.40424 79.4554 11.3952L75.9104 15L68.8203 7.79028Z" fill="#EB0029"/>
<path d="M41 25C41.5523 25 42 25.4477 42 26V64C42 64.5523 41.5523 65 41 65V25Z" fill="#EB0029"/>
</svg>
